<svg xmlns="http://www.w3.org/2000/svg" viewBox="0 0 640 800" role="img" aria-labelledby="title desc">
  <title id="title">Weekend Scarf</title>
  <desc id="desc">A folded knit scarf arranged in a soft spiral on a neutral backdrop.</desc>
  <defs>
    <linearGradient id="bg" x1="0%" x2="100%" y1="0%" y2="100%">
      <stop offset="0%" stop-color="#f5efe9"/>
      <stop offset="100%" stop-color="#e4ddd5"/>
    </linearGradient>
    <linearGradient id="knit" x1="0%" x2="100%" y1="0%" y2="100%">
      <stop offset="0%" stop-color="#b5a59b"/>
      <stop offset="100%" stop-color="#8e7c73"/>
    </linearGradient>
  </defs>
  <rect width="640" height="800" fill="url(#bg)"/>
  <circle cx="480" cy="170" r="118" fill="#ffffff" fill-opacity=".28"/>
  <circle cx="146" cy="616" r="138" fill="#d9e0d2" fill-opacity=".18"/>
  <ellipse cx="320" cy="678" rx="176" ry="46" fill="#7d695d" fill-opacity=".1"/>
  <path d="M198 494c0-110 78-194 184-194 92 0 164 60 164 136 0 112-84 160-166 160-95 0-182-32-182-102z" fill="url(#knit)"/>
  <path d="M196 492c0-72 71-122 160-122 78 0 126 32 126 85 0 72-61 104-126 104-88 0-160-21-160-67z" fill="#c8bbb1"/>
  <path d="M168 548c30-52 107-90 184-90 54 0 122 13 154 41-44 30-91 55-132 73-63 27-147 45-215 32-26-5-40-22-40-56z" fill="#9d8b80"/>
  <path d="M228 226c34 4 62 9 84 17 12 4 22 17 24 30l15 95c2 15-10 29-26 29H233c-14 0-26-14-24-29l14-104c2-18 19-35 39-38z" fill="#a9988e"/>
  <path d="M228 214h122c11 0 19 8 19 19v27H209v-27c0-11 8-19 19-19z" fill="#8e7b72"/>
  <g fill="#756359" fill-opacity=".34">
    <rect x="231" y="236" width="8" height="153" rx="4"/>
    <rect x="257" y="228" width="8" height="161" rx="4"/>
    <rect x="283" y="225" width="8" height="164" rx="4"/>
    <rect x="309" y="225" width="8" height="164" rx="4"/>
    <rect x="335" y="228" width="8" height="161" rx="4"/>
  </g>
</svg>
